<?xml version="1.0" encoding="iso-8859-1"?>
<!-- Uploaded to: SVG Repo, www.svgrepo.com, Generator: SVG Repo Mixer Tools -->
<svg height="800px" width="800px" version="1.1" id="Layer_1" xmlns="http://www.w3.org/2000/svg" xmlns:xlink="http://www.w3.org/1999/xlink" 
	 viewBox="0 0 392.469 392.469" xml:space="preserve">
<path style="fill:#FFFFFF;" d="M280.986,207.515l-74.731,153.988c-3.103,6.594-13.705,9.891-19.653,0l0,0l0,0l-74.667-153.988
	c-29.802,3.297-52.945,28.444-52.945,58.958v104.21h274.683v-104.21C333.608,236.024,310.594,210.812,280.986,207.515z"/>
<path style="fill:#FFC10D;" d="M196.299,21.721c-31.095,0-56.307,25.277-56.307,56.307s25.277,56.307,56.307,56.307
	s56.307-25.277,56.307-56.307S227.394,21.721,196.299,21.721z"/>
<g>
	<path style="fill:#56ACE0;" d="M80.776,266.343v9.762h23.402c6.012,0,10.925,4.848,10.925,10.925
		c0,6.012-4.848,10.925-10.925,10.925H80.776v16.679h4.978c6.012,0,10.925,4.849,10.925,10.925c0,6.012-4.848,10.925-10.925,10.925
		h-4.978v12.412h75.507l-55.919-115.394C88.663,239.838,80.776,252.251,80.776,266.343z"/>
	<path style="fill:#56ACE0;" d="M292.493,233.632l-55.855,115.2h75.184v-82.489C311.822,252.315,304,240.032,292.493,233.632z"/>
</g>
<g>
	<path style="fill:#194F82;" d="M196.299,156.121c43.055,0,78.093-34.974,78.093-78.093C274.392,34.974,239.289,0,196.299,0
		s-78.093,34.974-78.093,78.093C118.206,121.083,153.244,156.121,196.299,156.121z M196.299,21.721
		c31.095,0,56.307,25.277,56.307,56.307s-25.277,56.307-56.307,56.307s-56.307-25.277-56.307-56.307S165.204,21.721,196.299,21.721z
		"/>
	<path style="fill:#194F82;" d="M274.327,185.277c-4.202,0-7.952,2.392-9.826,6.206l-37.107,76.412l-4.59-38.465l13.834-12.154
		c5.56-4.784,4.655-11.895,0-16.356l-33.228-29.156c-4.073-3.62-10.279-3.62-14.352,0l-33.228,29.156
		c-4.848,3.943-5.107,12.283,0,16.356l13.834,12.154l-4.461,37.947l-36.848-75.895c-1.875-3.814-5.947-6.206-10.149-6.206
		c-44.735,0-81.131,36.396-81.131,81.131v115.135c0,6.012,4.848,10.925,10.925,10.925h296.469c6.012,0,10.925-4.848,10.925-10.925
		V266.473C355.459,221.673,319.063,185.277,274.327,185.277z M196.299,194.457l16.679,14.675l-7.822,6.853h-17.778l-7.758-6.853
		L196.299,194.457z M209.745,304.291l-13.317,27.41l-13.511-27.992l7.758-66.004h11.313L209.745,304.291z M333.608,370.683H58.99
		v-104.21c0-30.449,23.079-55.661,52.945-58.958l74.731,153.988l0,0l0,0c5.947,9.891,16.485,6.594,19.653,0l74.667-153.988
		c29.608,3.297,52.687,28.509,52.687,58.958v104.21H333.608z"/>
</g>
<g>
	<polygon style="fill:#FFFFFF;" points="196.428,331.766 209.745,304.291 201.923,237.77 190.675,237.77 182.853,303.774 	"/>
	<polygon style="fill:#FFFFFF;" points="187.442,215.919 205.156,215.919 212.978,209.131 196.299,194.457 179.62,209.131 	"/>
</g>
</svg>